<svg id="visual" viewBox="0 0 900 600" width="900" height="600" xmlns="http://www.w3.org/2000/svg" xmlns:xlink="http://www.w3.org/1999/xlink" version="1.1"><g fill="#6FB2E0"><circle r="41" cx="894" cy="352"></circle><circle r="21" cx="406" cy="1"></circle><circle r="28" cx="289" cy="133"></circle><circle r="32" cx="325" cy="441"></circle><circle r="34" cx="625" cy="83"></circle><circle r="36" cx="104" cy="311"></circle><circle r="23" cx="888" cy="77"></circle><circle r="35" cx="438" cy="211"></circle><circle r="27" cx="70" cy="536"></circle><circle r="36" cx="770" cy="526"></circle><circle r="36" cx="663" cy="11"></circle><circle r="22" cx="517" cy="61"></circle><circle r="27" cx="426" cy="130"></circle><circle r="20" cx="861" cy="597"></circle><circle r="30" cx="129" cy="390"></circle><circle r="20" cx="27" cy="238"></circle><circle r="28" cx="726" cy="304"></circle><circle r="31" cx="805" cy="416"></circle><circle r="21" cx="511" cy="253"></circle><circle r="36" cx="539" cy="458"></circle><circle r="27" cx="205" cy="594"></circle><circle r="28" cx="443" cy="446"></circle><circle r="29" cx="598" cy="326"></circle><circle r="30" cx="806" cy="44"></circle><circle r="38" cx="445" cy="576"></circle><circle r="26" cx="802" cy="240"></circle></g></svg>