<svg id="visual" viewBox="0 0 900 600" width="900" height="600" xmlns="http://www.w3.org/2000/svg" xmlns:xlink="http://www.w3.org/1999/xlink" version="1.1"><path d="M0 67L50 70C100 73 200 79 300 79C400 79 500 73 600 75C700 77 800 87 850 92L900 97L900 0L850 0C800 0 700 0 600 0C500 0 400 0 300 0C200 0 100 0 50 0L0 0Z" fill="#6fb2e0"></path><path d="M0 151L50 148C100 145 200 139 300 130C400 121 500 109 600 108C700 107 800 117 850 122L900 127L900 95L850 90C800 85 700 75 600 73C500 71 400 77 300 77C200 77 100 71 50 68L0 65Z" fill="#5ea5d9"></path><path d="M0 283L50 267C100 251 200 219 300 207C400 195 500 203 600 216C700 229 800 247 850 256L900 265L900 125L850 120C800 115 700 105 600 106C500 107 400 119 300 128C200 137 100 143 50 146L0 149Z" fill="#4c98d2"></path><path d="M0 427L50 428C100 429 200 431 300 420C400 409 500 385 600 384C700 383 800 405 850 416L900 427L900 263L850 254C800 245 700 227 600 214C500 201 400 193 300 205C200 217 100 249 50 265L0 281Z" fill="#398cca"></path><path d="M0 505L50 499C100 493 200 481 300 477C400 473 500 477 600 480C700 483 800 485 850 486L900 487L900 425L850 414C800 403 700 381 600 382C500 383 400 407 300 418C200 429 100 427 50 426L0 425Z" fill="#247fc3"></path><path d="M0 601L50 601C100 601 200 601 300 601C400 601 500 601 600 601C700 601 800 601 850 601L900 601L900 485L850 484C800 483 700 481 600 478C500 475 400 471 300 475C200 479 100 491 50 497L0 503Z" fill="#0072bb"></path></svg>